<svg width="61" height="43" viewBox="0 0 61 43" fill="none" xmlns="http://www.w3.org/2000/svg">
<path d="M 252.1 24.2 C 254.4 24.2 256.3 26.1 256.3 28.4 C 256.3 30.7 254.4 32.6 252.1 32.6 C 249.8 32.6 247.9 30.7 247.9 28.4 C 247.9 26.1 249.8 24.2 252.1 24.2 Z" fill="white"/>
<path fill-rule="evenodd" clip-rule="evenodd" d="M 36.7 34.5 C 35.4 36.7 32.2 36.7 30.9 34.5 L 12.8 4.3 L 48.9 4.3 C 51.5 4.3 53.1 7.1 51.7 9.3 L 36.7 34.5 Z" fill="#ffd723"/>
<path fill-rule="evenodd" clip-rule="evenodd" d="M 18.1 34.5 C 19.4 36.7 22.6 36.7 23.9 34.5 L 42 4.3 L 5.9 4.3 C 3.3 4.3 1.7 7.1 3 9.3 L 18.1 34.5 Z" fill="white"/>
<path fill-rule="evenodd" clip-rule="evenodd" d="M 12.8 4.3 H 42 L 27.4 28.6 L 12.8 4.3 Z" fill="#f6f6f6"/>
</svg>