<svg width="257" height="40" viewBox="0 0 257 40" fill="none" xmlns="http://www.w3.org/2000/svg">
<path fill-rule="evenodd" clip-rule="evenodd" d="M 214 8.2 C 211.7 8.2 209.9 6.4 209.9 4.1 C 209.9 1.9 211.8 0 214 0 C 216.3 0 218.2 1.8 218.2 4.1 C 218.2 6.4 216.3 8.2 214 8.2 Z M 137.5 32.3 H 130.9 V 4.3 H 137.6 V 12 C 137.6 12 140.6 9.4 144.5 9.4 C 151.2 9.4 155.1 15 155.1 21.1 C 155.1 27.3 151.1 32.8 144.8 32.8 C 141.8 32.8 139.6 32 137.5 29.9 V 32.3 Z M 116.4 32.8 C 109.4 32.8 104.7 28.6 104.7 21.1 C 104.7 14.3 109.6 9.4 116.2 9.4 C 122.6 9.4 127.2 13.7 127.2 21.7 L 127.2 21.9 C 127.2 22 127.2 22.1 127.2 22.2 C 127.2 22.5 127.2 22.7 127.2 23 H 111.4 C 112 25.7 114.1 27 116.7 27 C 118.8 27 120.2 25.6 121.3 24.1 L 121.5 23.9 C 121.5 23.9 124.9 25.8 126.4 26.7 L 126.8 27 C 124.9 30.5 121.1 32.8 116.4 32.8 Z M 74.8 32.3 L 66.2 9.8 H 73.4 L 77.8 22.3 L 81.9 9.8 H 87.4 L 91.7 22.3 L 96.1 9.8 H 103.2 L 94.7 32.3 H 88.8 L 84.7 20.2 L 80.6 32.3 H 74.8 Z M 116.1 15.1 C 118.2 15.1 119.4 16.1 120.2 18.3 H 111.7 C 112.5 16.2 113.8 15.1 116.1 15.1 Z M 143 15.7 C 146.1 15.7 148.3 18.1 148.3 20.9 C 148.3 24.1 146.6 26.8 143.3 26.8 C 139.8 26.8 137.4 24.6 137.4 21.1 C 137.4 17.8 139.8 15.7 143 15.7 Z M 169.8 33 C 162.9 33 157.6 27.4 157.6 21.2 C 157.6 14.4 163 9.4 169.9 9.4 C 176.7 9.4 182 14.3 182 21.1 C 182 27.9 177.1 33 169.8 33 Z M 169.9 15.8 C 173.1 15.8 175.2 18.1 175.2 20.9 C 175.2 24.5 173.2 26.6 169.8 26.6 C 166.7 26.6 164.4 24.3 164.4 21.3 C 164.4 18.2 166.6 15.8 169.9 15.8 Z M 199.1 32.3 H 193 L 183.6 9.8 H 191.2 L 196.1 23 L 200.7 9.8 H 207.9 L 199.1 32.3 Z M 217.4 9.8 H 210.6 V 32.3 H 217.4 V 9.8 Z M 221 21.2 C 221 27.4 226.3 33 233.2 33 C 240.5 33 245.4 27.9 245.4 21.1 C 245.4 14.3 240.1 9.4 233.3 9.4 C 226.4 9.4 221 14.4 221 21.2 Z M 238.7 20.9 C 238.7 18.1 236.5 15.8 233.3 15.8 C 230 15.8 227.8 18.2 227.8 21.3 C 227.8 24.3 230.1 26.6 233.3 26.6 C 236.6 26.6 238.7 24.5 238.7 20.9 Z" fill="white"/>
<path d="M 252.1 24.2 C 254.4 24.2 256.3 26.1 256.3 28.4 C 256.3 30.7 254.4 32.6 252.1 32.6 C 249.8 32.6 247.9 30.7 247.9 28.4 C 247.9 26.1 249.8 24.2 252.1 24.2 Z" fill="white"/>
<path fill-rule="evenodd" clip-rule="evenodd" d="M 36.7 34.5 C 35.4 36.7 32.2 36.7 30.9 34.5 L 12.8 4.3 L 48.9 4.3 C 51.5 4.3 53.1 7.1 51.7 9.3 L 36.7 34.5 Z" fill="#ffd723"/>
<path fill-rule="evenodd" clip-rule="evenodd" d="M 18.1 34.5 C 19.4 36.7 22.6 36.7 23.9 34.5 L 42 4.3 L 5.9 4.3 C 3.3 4.3 1.7 7.1 3 9.3 L 18.1 34.5 Z" fill="white"/>
<path fill-rule="evenodd" clip-rule="evenodd" d="M 12.8 4.3 H 42 L 27.4 28.6 L 12.8 4.3 Z" fill="#f6f6f6"/>
</svg>
